solid OpenSCAD_Model
  facet normal -1 0 0
    outer loop
      vertex 0 0 0
      vertex 0 49 7
      vertex 0 49 0
    endloop
  endfacet
  facet normal -1 -0 0
    outer loop
      vertex 0 49 7
      vertex 0 0 0
      vertex 0 0 7
    endloop
  endfacet
  facet normal 0 0 1
    outer loop
      vertex 41 49 7
      vertex 39 47 7
      vertex 41 0 7
    endloop
  endfacet
  facet normal 0 0 1
    outer loop
      vertex 41 49 7
      vertex 2 47 7
      vertex 39 47 7
    endloop
  endfacet
  facet normal 0 0 1
    outer loop
      vertex 2 47 7
      vertex 0 49 7
      vertex 2 2 7
    endloop
  endfacet
  facet normal -0 0 1
    outer loop
      vertex 0 49 7
      vertex 2 47 7
      vertex 41 49 7
    endloop
  endfacet
  facet normal -0 0 1
    outer loop
      vertex 39 2 7
      vertex 41 0 7
      vertex 39 47 7
    endloop
  endfacet
  facet normal -0 0 1
    outer loop
      vertex 2 2 7
      vertex 41 0 7
      vertex 39 2 7
    endloop
  endfacet
  facet normal 0 0 1
    outer loop
      vertex 2 2 7
      vertex 0 0 7
      vertex 41 0 7
    endloop
  endfacet
  facet normal 0 0 1
    outer loop
      vertex 0 0 7
      vertex 2 2 7
      vertex 0 49 7
    endloop
  endfacet
  facet normal 1 -0 0
    outer loop
      vertex 41 0 7
      vertex 41 49 0
      vertex 41 49 7
    endloop
  endfacet
  facet normal 1 0 0
    outer loop
      vertex 41 49 0
      vertex 41 0 7
      vertex 41 0 0
    endloop
  endfacet
  facet normal 0 1 -0
    outer loop
      vertex 41 49 0
      vertex 0 49 7
      vertex 41 49 7
    endloop
  endfacet
  facet normal 0 1 0
    outer loop
      vertex 0 49 7
      vertex 41 49 0
      vertex 0 49 0
    endloop
  endfacet
  facet normal 0 0 -1
    outer loop
      vertex 0 0 0
      vertex 41 49 0
      vertex 41 0 0
    endloop
  endfacet
  facet normal -0 0 -1
    outer loop
      vertex 41 49 0
      vertex 0 0 0
      vertex 0 49 0
    endloop
  endfacet
  facet normal 0 -1 0
    outer loop
      vertex 0 0 0
      vertex 41 0 7
      vertex 0 0 7
    endloop
  endfacet
  facet normal 0 -1 -0
    outer loop
      vertex 41 0 7
      vertex 0 0 0
      vertex 41 0 0
    endloop
  endfacet
  facet normal 1 -0 0
    outer loop
      vertex 2 2 7
      vertex 2 47 2
      vertex 2 47 7
    endloop
  endfacet
  facet normal 1 0 0
    outer loop
      vertex 2 47 2
      vertex 2 2 7
      vertex 2 2 2
    endloop
  endfacet
  facet normal -1 0 0
    outer loop
      vertex 39 2 2
      vertex 39 47 7
      vertex 39 47 2
    endloop
  endfacet
  facet normal -1 -0 0
    outer loop
      vertex 39 47 7
      vertex 39 2 2
      vertex 39 2 7
    endloop
  endfacet
  facet normal -0 0 1
    outer loop
      vertex 2 47 2
      vertex 39 2 2
      vertex 39 47 2
    endloop
  endfacet
  facet normal 0 0 1
    outer loop
      vertex 39 2 2
      vertex 2 47 2
      vertex 2 2 2
    endloop
  endfacet
  facet normal 0 1 -0
    outer loop
      vertex 39 2 2
      vertex 2 2 7
      vertex 39 2 7
    endloop
  endfacet
  facet normal 0 1 0
    outer loop
      vertex 2 2 7
      vertex 39 2 2
      vertex 2 2 2
    endloop
  endfacet
  facet normal 0 -1 0
    outer loop
      vertex 2 47 2
      vertex 39 47 7
      vertex 2 47 7
    endloop
  endfacet
  facet normal 0 -1 -0
    outer loop
      vertex 39 47 7
      vertex 2 47 2
      vertex 39 47 2
    endloop
  endfacet
endsolid OpenSCAD_Model
