solid OpenSCAD_Model
  facet normal -1 0 0
    outer loop
      vertex -18 0 0
      vertex -18 44 27
      vertex -18 44 0
    endloop
  endfacet
  facet normal -1 -0 0
    outer loop
      vertex -18 44 27
      vertex -18 0 0
      vertex -18 0 27
    endloop
  endfacet
  facet normal 0 0 1
    outer loop
      vertex 18 44 27
      vertex 16 42 27
      vertex 18 0 27
    endloop
  endfacet
  facet normal 0 0 1
    outer loop
      vertex 18 44 27
      vertex -16 42 27
      vertex 16 42 27
    endloop
  endfacet
  facet normal 0 0 1
    outer loop
      vertex -18 0 27
      vertex -16 42 27
      vertex -18 44 27
    endloop
  endfacet
  facet normal -0 0 1
    outer loop
      vertex -18 44 27
      vertex -16 42 27
      vertex 18 44 27
    endloop
  endfacet
  facet normal -0 0 1
    outer loop
      vertex 16 1 27
      vertex 18 0 27
      vertex 16 42 27
    endloop
  endfacet
  facet normal -0 0 1
    outer loop
      vertex -16 1 27
      vertex 18 0 27
      vertex 16 1 27
    endloop
  endfacet
  facet normal 0 0 1
    outer loop
      vertex -16 1 27
      vertex -18 0 27
      vertex 18 0 27
    endloop
  endfacet
  facet normal 0 0 1
    outer loop
      vertex -16 42 27
      vertex -18 0 27
      vertex -16 1 27
    endloop
  endfacet
  facet normal 1 -0 0
    outer loop
      vertex 18 0 27
      vertex 18 44 0
      vertex 18 44 27
    endloop
  endfacet
  facet normal 1 0 0
    outer loop
      vertex 18 44 0
      vertex 18 0 27
      vertex 18 0 0
    endloop
  endfacet
  facet normal 0 1 0
    outer loop
      vertex 18 44 27
      vertex 4 44 24
      vertex -18 44 27
    endloop
  endfacet
  facet normal 0 1 0
    outer loop
      vertex 18 44 27
      vertex 5 44 20
      vertex 4 44 24
    endloop
  endfacet
  facet normal 0 1 0
    outer loop
      vertex 5 44 20
      vertex 18 44 0
      vertex -5 44 20
    endloop
  endfacet
  facet normal 0 1 -0
    outer loop
      vertex 18 44 0
      vertex 5 44 20
      vertex 18 44 27
    endloop
  endfacet
  facet normal 0 1 -0
    outer loop
      vertex -4 44 24
      vertex -18 44 27
      vertex 4 44 24
    endloop
  endfacet
  facet normal 0 1 -0
    outer loop
      vertex -5 44 20
      vertex -18 44 27
      vertex -4 44 24
    endloop
  endfacet
  facet normal 0 1 0
    outer loop
      vertex -18 44 0
      vertex -5 44 20
      vertex 18 44 0
    endloop
  endfacet
  facet normal 0 1 0
    outer loop
      vertex -5 44 20
      vertex -18 44 0
      vertex -18 44 27
    endloop
  endfacet
  facet normal 0 0 -1
    outer loop
      vertex -18 0 0
      vertex 18 44 0
      vertex 18 0 0
    endloop
  endfacet
  facet normal -0 0 -1
    outer loop
      vertex 18 44 0
      vertex -18 0 0
      vertex -18 44 0
    endloop
  endfacet
  facet normal 0 -1 0
    outer loop
      vertex 0 0 17
      vertex -18 0 27
      vertex -8 0 17
    endloop
  endfacet
  facet normal 0 -1 0
    outer loop
      vertex -18 0 0
      vertex -8 0 17
      vertex -18 0 27
    endloop
  endfacet
  facet normal 0 -1 -0
    outer loop
      vertex -8 0 17
      vertex -18 0 0
      vertex -7.5 0 13.5
    endloop
  endfacet
  facet normal 0 -1 -0
    outer loop
      vertex -7 0 10
      vertex -18 0 0
      vertex 7 0 10
    endloop
  endfacet
  facet normal 0 -1 -0
    outer loop
      vertex -7.5 0 13.5
      vertex -18 0 0
      vertex -7 0 10
    endloop
  endfacet
  facet normal 0 -1 0
    outer loop
      vertex -18 0 27
      vertex 0 0 17
      vertex 18 0 27
    endloop
  endfacet
  facet normal 0 -1 0
    outer loop
      vertex 8 0 17
      vertex 18 0 27
      vertex 0 0 17
    endloop
  endfacet
  facet normal 0 -1 0
    outer loop
      vertex 18 0 0
      vertex 8 0 17
      vertex 7.5 0 13.5
    endloop
  endfacet
  facet normal 0 -1 0
    outer loop
      vertex 18 0 0
      vertex 7.5 0 13.5
      vertex 7 0 10
    endloop
  endfacet
  facet normal 0 -1 0
    outer loop
      vertex 8 0 17
      vertex 18 0 0
      vertex 18 0 27
    endloop
  endfacet
  facet normal 0 -1 0
    outer loop
      vertex 18 0 0
      vertex 7 0 10
      vertex -18 0 0
    endloop
  endfacet
  facet normal 1 0 0
    outer loop
      vertex -16 42 27
      vertex -16 30 12
      vertex -16 42 12
    endloop
  endfacet
  facet normal 1 -0 0
    outer loop
      vertex -16 1 27
      vertex -16 30 12
      vertex -16 42 27
    endloop
  endfacet
  facet normal 1 0 0
    outer loop
      vertex -16 1 2
      vertex -16 30 12
      vertex -16 1 27
    endloop
  endfacet
  facet normal 1 0 0
    outer loop
      vertex -16 30 12
      vertex -16 1 2
      vertex -16 26 2
    endloop
  endfacet
  facet normal 1 0 -0
    outer loop
      vertex -16 42 2
      vertex -16 42 12
      vertex -16 26 2
    endloop
  endfacet
  facet normal -1 0 0
    outer loop
      vertex 16 1 2
      vertex 16 42 27
      vertex 16 42 2
    endloop
  endfacet
  facet normal -1 -0 0
    outer loop
      vertex 16 42 27
      vertex 16 1 2
      vertex 16 1 27
    endloop
  endfacet
  facet normal -0 0 1
    outer loop
      vertex 16 26 2
      vertex 16 1 2
      vertex 16 42 2
    endloop
  endfacet
  facet normal -0 0 1
    outer loop
      vertex -16 26 2
      vertex 16 1 2
      vertex 16 26 2
    endloop
  endfacet
  facet normal 0 0 1
    outer loop
      vertex 16 1 2
      vertex -16 26 2
      vertex -16 1 2
    endloop
  endfacet
  facet normal 0 1 0
    outer loop
      vertex -1.6 1 17
      vertex 16 1 27
      vertex 8 1 17
    endloop
  endfacet
  facet normal 0 1 -0
    outer loop
      vertex 16 1 2
      vertex 8 1 17
      vertex 16 1 27
    endloop
  endfacet
  facet normal 0 1 0
    outer loop
      vertex 8 1 17
      vertex 16 1 2
      vertex 7.6 1 14.2
    endloop
  endfacet
  facet normal 0 1 0
    outer loop
      vertex 7 1 10
      vertex 16 1 2
      vertex -7 1 10
    endloop
  endfacet
  facet normal 0 1 0
    outer loop
      vertex 7.6 1 14.2
      vertex 16 1 2
      vertex 7 1 10
    endloop
  endfacet
  facet normal 0 1 0
    outer loop
      vertex 16 1 27
      vertex -1.6 1 17
      vertex -16 1 27
    endloop
  endfacet
  facet normal 0 1 -0
    outer loop
      vertex -8 1 17
      vertex -16 1 27
      vertex -1.6 1 17
    endloop
  endfacet
  facet normal 0 1 0
    outer loop
      vertex -16 1 2
      vertex -8 1 17
      vertex -7.6 1 14.2
    endloop
  endfacet
  facet normal 0 1 0
    outer loop
      vertex -16 1 2
      vertex -7.6 1 14.2
      vertex -7 1 10
    endloop
  endfacet
  facet normal 0 1 0
    outer loop
      vertex -8 1 17
      vertex -16 1 2
      vertex -16 1 27
    endloop
  endfacet
  facet normal 0 1 0
    outer loop
      vertex -16 1 2
      vertex -7 1 10
      vertex 16 1 2
    endloop
  endfacet
  facet normal 0 -1 0
    outer loop
      vertex -16 42 27
      vertex -4 42 24
      vertex 16 42 27
    endloop
  endfacet
  facet normal 0 -1 0
    outer loop
      vertex -16 42 27
      vertex -5 42 20
      vertex -4 42 24
    endloop
  endfacet
  facet normal 0 -1 0
    outer loop
      vertex -16 42 2
      vertex -5 42 20
      vertex -16 42 12
    endloop
  endfacet
  facet normal 0 -1 0
    outer loop
      vertex -16 42 12
      vertex -5 42 20
      vertex -16 42 27
    endloop
  endfacet
  facet normal 0 -1 0
    outer loop
      vertex 4 42 24
      vertex 16 42 27
      vertex -4 42 24
    endloop
  endfacet
  facet normal 0 -1 0
    outer loop
      vertex 5 42 20
      vertex 16 42 27
      vertex 4 42 24
    endloop
  endfacet
  facet normal 0 -1 -0
    outer loop
      vertex -5 42 20
      vertex -16 42 2
      vertex 5 42 20
    endloop
  endfacet
  facet normal 0 -1 0
    outer loop
      vertex 16 42 2
      vertex 5 42 20
      vertex -16 42 2
    endloop
  endfacet
  facet normal 0 -1 0
    outer loop
      vertex 5 42 20
      vertex 16 42 2
      vertex 16 42 27
    endloop
  endfacet
  facet normal -0.989949 -1.3487e-007 0.141421
    outer loop
      vertex 7.5 0 13.5
      vertex 7 1 10
      vertex 7 0 10
    endloop
  endfacet
  facet normal -0.989949 -1.91066e-007 0.141421
    outer loop
      vertex 7 1 10
      vertex 7.5 0 13.5
      vertex 7.6 1 14.2
    endloop
  endfacet
  facet normal 0.989949 -2.6974e-007 0.141421
    outer loop
      vertex -7.5 0 13.5
      vertex -7 1 10
      vertex -7.6 1 14.2
    endloop
  endfacet
  facet normal 0.989949 -1.3487e-007 0.141421
    outer loop
      vertex -7 1 10
      vertex -7.5 0 13.5
      vertex -7 0 10
    endloop
  endfacet
  facet normal -0.989949 -1.75331e-007 0.141421
    outer loop
      vertex 8 0 17
      vertex 7.6 1 14.2
      vertex 7.5 0 13.5
    endloop
  endfacet
  facet normal -0.989949 0 0.141421
    outer loop
      vertex 7.6 1 14.2
      vertex 8 0 17
      vertex 8 1 17
    endloop
  endfacet
  facet normal 0 0 -1
    outer loop
      vertex -8 0 17
      vertex -1.6 1 17
      vertex 0 0 17
    endloop
  endfacet
  facet normal -0 0 -1
    outer loop
      vertex -1.6 1 17
      vertex -8 0 17
      vertex -8 1 17
    endloop
  endfacet
  facet normal 0 -9.53674e-007 1
    outer loop
      vertex -7 1 10
      vertex 7 0 10
      vertex 7 1 10
    endloop
  endfacet
  facet normal 0 -9.53674e-007 1
    outer loop
      vertex 7 0 10
      vertex -7 1 10
      vertex -7 0 10
    endloop
  endfacet
  facet normal 0 0 -1
    outer loop
      vertex 0 0 17
      vertex 8 1 17
      vertex 8 0 17
    endloop
  endfacet
  facet normal -0 0 -1
    outer loop
      vertex 8 1 17
      vertex 0 0 17
      vertex -1.6 1 17
    endloop
  endfacet
  facet normal 0.989949 -0 0.141422
    outer loop
      vertex -8 0 17
      vertex -7.6 1 14.2
      vertex -8 1 17
    endloop
  endfacet
  facet normal 0.989949 -2.6974e-007 0.141421
    outer loop
      vertex -7.6 1 14.2
      vertex -8 0 17
      vertex -7.5 0 13.5
    endloop
  endfacet
  facet normal -0.970143 0 -0.242536
    outer loop
      vertex 5 42 20
      vertex 4 44 24
      vertex 5 44 20
    endloop
  endfacet
  facet normal -0.970143 -0 -0.242536
    outer loop
      vertex 4 44 24
      vertex 5 42 20
      vertex 4 42 24
    endloop
  endfacet
  facet normal 0.970143 0 -0.242536
    outer loop
      vertex -4 42 24
      vertex -5 44 20
      vertex -4 44 24
    endloop
  endfacet
  facet normal 0.970143 0 -0.242536
    outer loop
      vertex -5 44 20
      vertex -4 42 24
      vertex -5 42 20
    endloop
  endfacet
  facet normal -0 0 1
    outer loop
      vertex -5 44 20
      vertex 5 42 20
      vertex 5 44 20
    endloop
  endfacet
  facet normal 0 0 1
    outer loop
      vertex 5 42 20
      vertex -5 44 20
      vertex -5 42 20
    endloop
  endfacet
  facet normal 0 0 -1
    outer loop
      vertex -4 42 24
      vertex 4 44 24
      vertex 4 42 24
    endloop
  endfacet
  facet normal -0 0 -1
    outer loop
      vertex 4 44 24
      vertex -4 42 24
      vertex -4 44 24
    endloop
  endfacet
  facet normal -1 0 0
    outer loop
      vertex 27 44 -5.38827e-015
      vertex 27 2.44921e-016 2
      vertex 27 44 2
    endloop
  endfacet
  facet normal -1 0 -0
    outer loop
      vertex 27 2.44921e-016 2
      vertex 27 44 -5.38827e-015
      vertex 27 0 0
    endloop
  endfacet
  facet normal 0 0 1
    outer loop
      vertex 60 2 2
      vertex 63 44 2
      vertex 60 43 2
    endloop
  endfacet
  facet normal 0 0 1
    outer loop
      vertex 63 44 2
      vertex 30 43 2
      vertex 60 43 2
    endloop
  endfacet
  facet normal 0 0 1
    outer loop
      vertex 30 43 2
      vertex 27 44 2
      vertex 30 2 2
    endloop
  endfacet
  facet normal -0 0 1
    outer loop
      vertex 27 44 2
      vertex 30 43 2
      vertex 63 44 2
    endloop
  endfacet
  facet normal 0 0 1
    outer loop
      vertex 63 44 2
      vertex 60 2 2
      vertex 63 2.44921e-016 2
    endloop
  endfacet
  facet normal -0 0 1
    outer loop
      vertex 30 2 2
      vertex 63 2.44921e-016 2
      vertex 60 2 2
    endloop
  endfacet
  facet normal 0 0 1
    outer loop
      vertex 30 2 2
      vertex 27 2.44921e-016 2
      vertex 63 2.44921e-016 2
    endloop
  endfacet
  facet normal 0 0 1
    outer loop
      vertex 27 2.44921e-016 2
      vertex 30 2 2
      vertex 27 44 2
    endloop
  endfacet
  facet normal 1 -0 0
    outer loop
      vertex 63 2.44921e-016 2
      vertex 63 44 -5.38827e-015
      vertex 63 44 2
    endloop
  endfacet
  facet normal 1 0 0
    outer loop
      vertex 63 44 -5.38827e-015
      vertex 63 2.44921e-016 2
      vertex 63 0 0
    endloop
  endfacet
  facet normal 0 1 -0
    outer loop
      vertex 63 44 -5.38827e-015
      vertex 27 44 2
      vertex 63 44 2
    endloop
  endfacet
  facet normal 0 1 0
    outer loop
      vertex 27 44 2
      vertex 63 44 -5.38827e-015
      vertex 27 44 -5.38827e-015
    endloop
  endfacet
  facet normal 0 -1 1.22461e-016
    outer loop
      vertex 27 0 0
      vertex 63 2.44921e-016 2
      vertex 27 2.44921e-016 2
    endloop
  endfacet
  facet normal 0 -1 1.22461e-016
    outer loop
      vertex 63 2.44921e-016 2
      vertex 27 0 0
      vertex 63 0 0
    endloop
  endfacet
  facet normal -1 0 0
    outer loop
      vertex 30 2 2
      vertex 30 43 4
      vertex 30 43 2
    endloop
  endfacet
  facet normal -1 -0 0
    outer loop
      vertex 30 43 4
      vertex 30 2 2
      vertex 30 2 4
    endloop
  endfacet
  facet normal 1 -0 0
    outer loop
      vertex 60 2 4
      vertex 60 43 2
      vertex 60 43 4
    endloop
  endfacet
  facet normal 1 0 0
    outer loop
      vertex 60 43 2
      vertex 60 2 4
      vertex 60 2 2
    endloop
  endfacet
  facet normal 0 -1 0
    outer loop
      vertex 30 2 2
      vertex 60 2 4
      vertex 30 2 4
    endloop
  endfacet
  facet normal 0 -1 -0
    outer loop
      vertex 60 2 4
      vertex 30 2 2
      vertex 60 2 2
    endloop
  endfacet
  facet normal 0 1 -0
    outer loop
      vertex 60 43 2
      vertex 30 43 4
      vertex 60 43 4
    endloop
  endfacet
  facet normal 0 1 0
    outer loop
      vertex 30 43 4
      vertex 60 43 2
      vertex 30 43 2
    endloop
  endfacet
  facet normal 0 -1.22461e-016 -1
    outer loop
      vertex 27 0 0
      vertex 63 44 -5.38827e-015
      vertex 63 0 0
    endloop
  endfacet
  facet normal -0 -1.22461e-016 -1
    outer loop
      vertex 63 44 -5.38827e-015
      vertex 27 0 0
      vertex 27 44 -5.38827e-015
    endloop
  endfacet
  facet normal -0 0 1
    outer loop
      vertex 30 43 4
      vertex 60 2 4
      vertex 60 43 4
    endloop
  endfacet
  facet normal 0 0 1
    outer loop
      vertex 60 2 4
      vertex 30 43 4
      vertex 30 2 4
    endloop
  endfacet
  facet normal 0 1 -0
    outer loop
      vertex -16 42 2
      vertex -16 42 12
      vertex 16 42 12
    endloop
  endfacet
  facet normal -1 5.96046e-008 -9.53674e-008
    outer loop
      vertex -16 42 2
      vertex -16 26 2
      vertex -16 42 12
    endloop
  endfacet
  facet normal 0 1 -0
    outer loop
      vertex 16 42 2
      vertex -16 42 2
      vertex 16 42 12
    endloop
  endfacet
  facet normal 0 -0.928477 0.371391
    outer loop
      vertex -16 26 2
      vertex 16 30 12
      vertex -16 30 12
    endloop
  endfacet
  facet normal 0 -0.928477 0.371391
    outer loop
      vertex 16 30 12
      vertex -16 26 2
      vertex 16 26 2
    endloop
  endfacet
  facet normal 1 -7.94729e-008 3.17891e-008
    outer loop
      vertex 16 30 12
      vertex 16 26 2
      vertex 16 42 12
    endloop
  endfacet
  facet normal -0 0 1
    outer loop
      vertex -16 42 12
      vertex 16 30 12
      vertex 16 42 12
    endloop
  endfacet
  facet normal 0 0 1
    outer loop
      vertex 16 30 12
      vertex -16 42 12
      vertex -16 30 12
    endloop
  endfacet
  facet normal 1 -5.96046e-008 0
    outer loop
      vertex 16 42 12
      vertex 16 26 2
      vertex 16 42 2
    endloop
  endfacet
endsolid OpenSCAD_Model
